<?xml version="1.0" standalone="no"?>
<!DOCTYPE svg PUBLIC "-//W3C//DTD SVG 20010904//EN"
 "http://www.w3.org/TR/2001/REC-SVG-20010904/DTD/svg10.dtd">
<svg version="1.0" xmlns="http://www.w3.org/2000/svg"
 width="512.000000pt" height="512.000000pt" viewBox="0 0 512.000000 512.000000"
 preserveAspectRatio="xMidYMid meet">
<metadata>
Created by potrace 1.11, written by Peter Selinger 2001-2013
</metadata>
<g transform="translate(0.000000,512.000000) scale(0.100000,-0.100000)"
fill="#000000" stroke="none">
<path d="M2378 5116 c-1 -2 -34 -6 -73 -10 -38 -3 -97 -10 -130 -16 -33 -6
-76 -13 -95 -16 -106 -17 -413 -105 -434 -125 -6 -5 -16 -9 -23 -9 -31 0 -241
-103 -388 -191 -209 -124 -448 -325 -602 -505 -71 -83 -79 -92 -99 -119 -10
-15 -33 -46 -50 -69 -128 -171 -262 -426 -337 -641 -27 -77 -74 -235 -81 -275
-2 -14 -7 -36 -10 -50 -44 -190 -65 -557 -44 -780 21 -217 83 -475 165 -685
37 -93 123 -273 161 -335 12 -19 29 -48 38 -65 19 -35 138 -207 156 -227 7 -7
29 -34 48 -58 101 -131 286 -308 454 -434 281 -210 647 -377 976 -445 205 -43
297 -53 510 -56 225 -3 349 8 545 47 55 11 110 22 123 24 37 7 320 103 370
125 481 216 859 531 1135 945 116 174 278 508 302 624 1 3 11 37 22 75 30 100
54 208 68 305 3 19 7 44 10 55 19 94 27 460 13 605 -81 809 -539 1530 -1243
1952 -66 39 -298 158 -310 158 -4 0 -21 6 -38 14 -93 43 -368 123 -477 140
-19 3 -44 8 -56 10 -12 2 -45 7 -74 11 -29 4 -62 9 -74 12 -23 5 -452 13 -458
9z"/>
</g>
</svg>
